<svg width="17" height="17" viewBox="0 0 17 17" fill="none" xmlns="http://www.w3.org/2000/svg">
<path d="M8.50271 17.0054C7.3234 17.0054 6.21681 16.7825 5.18292 16.3367C4.14917 15.8908 3.24979 15.2855 2.48479 14.5206C1.71993 13.7556 1.11458 12.8562 0.66875 11.8225C0.222917 10.7886 0 9.68201 0 8.50271C0 7.48215 0.167639 6.51535 0.502917 5.60229C0.838194 4.68924 1.30278 3.86667 1.89667 3.13458C2.06611 2.91681 2.27174 2.81319 2.51354 2.82375C2.75535 2.83431 2.96431 2.91736 3.14042 3.07292C3.31639 3.22847 3.43201 3.43313 3.48729 3.68688C3.54257 3.94063 3.46299 4.20715 3.24854 4.48646C2.82743 5.04257 2.49667 5.65972 2.25625 6.33792C2.01597 7.01597 1.89583 7.73757 1.89583 8.50271C1.89583 10.3505 2.535 11.9136 3.81333 13.1921C5.09181 14.4704 6.65493 15.1096 8.50271 15.1096C10.3505 15.1096 11.9136 14.4704 13.1921 13.1921C14.4704 11.9136 15.1096 10.3505 15.1096 8.50271C15.1096 7.73757 14.9894 7.01597 14.7492 6.33792C14.5088 5.65972 14.178 5.04257 13.7569 4.48646C13.5424 4.20715 13.4628 3.94063 13.5181 3.68688C13.5734 3.43313 13.689 3.22847 13.865 3.07292C14.0411 2.91736 14.2501 2.83431 14.4919 2.82375C14.7337 2.81319 14.9393 2.91681 15.1088 3.13458C15.7026 3.86667 16.1672 4.68924 16.5025 5.60229C16.8378 6.51535 17.0054 7.48215 17.0054 8.50271C17.0054 9.68201 16.7825 10.7886 16.3367 11.8225C15.8908 12.8562 15.2855 13.7556 14.5206 14.5206C13.7556 15.2855 12.8562 15.8908 11.8225 16.3367C10.7886 16.7825 9.68201 17.0054 8.50271 17.0054ZM7.82917 9.17625C7.64625 8.9932 7.55479 8.76868 7.55479 8.50271V0.947917C7.55479 0.681945 7.64625 0.45743 7.82917 0.274375C8.01222 0.091458 8.23674 0 8.50271 0C8.76868 0 8.9932 0.091458 9.17625 0.274375C9.35917 0.45743 9.45063 0.681945 9.45063 0.947917V8.50271C9.45063 8.76868 9.35917 8.9932 9.17625 9.17625C8.9932 9.35917 8.76868 9.45063 8.50271 9.45063C8.23674 9.45063 8.01222 9.35917 7.82917 9.17625Z" fill="#FAFAFA"/>
</svg>
