<svg width="36" height="36" viewBox="0 0 36 36" fill="none" xmlns="http://www.w3.org/2000/svg">
<rect width="36" height="36" rx="18" fill="#B4AEAE"/>
<path opacity="0.9" d="M17.2995 27.4496C16.9158 27.0827 16.7071 26.6344 16.6736 26.1048H20.6653C20.6318 26.6344 20.4231 27.0827 20.0394 27.4496C19.6557 27.8165 19.199 28 18.6694 28C18.1398 28 17.6832 27.8165 17.2995 27.4496ZM23.9397 20.4032L13.5727 10.0485C14.2757 9.39784 15.0539 8.89375 15.9075 8.53625C16.7609 8.17875 17.6815 8 18.6694 8C20.7124 8 22.4462 8.71238 23.871 10.1371C25.2957 11.5619 26.0081 13.2957 26.0081 15.3387C26.0081 16.4851 25.8048 17.471 25.3982 18.2964C24.9916 19.1217 24.5054 19.8239 23.9397 20.4032ZM19.9558 21.629H14.8992C13.8012 20.9461 12.932 20.054 12.2916 18.9525C11.651 17.8511 11.3308 16.6465 11.3308 15.3387C11.3308 14.9826 11.3577 14.6233 11.4115 14.2609C11.4653 13.8987 11.5392 13.5805 11.6332 13.3064L8.77428 10.4152C8.62926 10.2702 8.55237 10.0905 8.54364 9.87608C8.5349 9.66169 8.61178 9.47315 8.77428 9.31048C8.9263 9.15864 9.11046 9.08272 9.32678 9.08272C9.5431 9.08272 9.72726 9.15864 9.87928 9.31048L27.2177 26.6492C27.3737 26.805 27.4534 26.9874 27.4567 27.1964C27.46 27.4054 27.3804 27.5912 27.2177 27.7539C27.0552 27.9166 26.8684 27.9979 26.6573 27.9979C26.4463 27.9979 26.2594 27.9166 26.0967 27.7539L19.9558 21.629ZM15.5243 24.653C15.3012 24.653 15.1144 24.5778 14.9639 24.4274C14.8133 24.2768 14.738 24.0899 14.738 23.8668C14.738 23.6436 14.8133 23.4568 14.9639 23.3064C15.1144 23.1558 15.3012 23.0805 15.5243 23.0805H21.9113C22.1344 23.0805 22.3213 23.1558 22.4719 23.3064C22.6224 23.4568 22.6976 23.6436 22.6976 23.8668C22.6976 24.0899 22.6224 24.2768 22.4719 24.4274C22.3213 24.5778 22.1344 24.653 21.9113 24.653H15.5243Z" fill="#FAFAFA"/>
</svg>
