<svg width="28" height="28" viewBox="0 0 28 28" fill="none" xmlns="http://www.w3.org/2000/svg">
<rect x="0.25" y="0.25" width="27.5" height="27.5" rx="13.75" fill="#228C73"/>
<rect x="0.25" y="0.25" width="27.5" height="27.5" rx="13.75" stroke="#FAFAFA" stroke-width="0.5"/>
<path d="M19.2373 17.917C19.2373 18.6208 19.0615 19.2676 18.7097 19.8575C18.3578 20.4472 17.8808 20.918 17.2785 21.2699L16.5451 21.7039C16.3702 21.7998 16.1906 21.8732 16.0061 21.924C15.8214 21.9747 15.6304 22 15.433 22C15.1425 22 14.8684 21.9493 14.6105 21.8478C14.3526 21.7464 14.1178 21.597 13.9063 21.3995C13.5426 21.0584 13.3248 20.6412 13.253 20.1479C13.1813 19.6547 13.2539 19.1826 13.4708 18.7315L13.7783 18.1114C13.8291 18.0078 13.8769 17.9076 13.9216 17.8111C13.9664 17.7144 14.0055 17.61 14.0391 17.4977C14.0725 17.4124 14.0684 17.3272 14.0269 17.242C13.9853 17.1567 13.9219 17.0919 13.8366 17.0477C13.746 17.0034 13.6553 16.9999 13.5647 17.0372C13.474 17.0744 13.4065 17.1357 13.3622 17.221C13.2187 17.5113 13.0406 17.7789 12.828 18.0239C12.6153 18.2689 12.3682 18.4729 12.0866 18.6359C11.78 18.8161 11.4592 18.9526 11.1241 19.0455C10.7889 19.1382 10.4454 19.1846 10.0937 19.1846C9.38988 19.1846 8.73954 19.0144 8.14266 18.674C7.54592 18.3335 7.07589 17.8578 6.73255 17.2469L6.30677 16.5134C6.20533 16.3473 6.12928 16.1711 6.07863 15.9849C6.02784 15.7987 6.00244 15.6112 6.00244 15.4223C6.00244 15.1319 6.05534 14.8612 6.16113 14.6103C6.26693 14.3595 6.41425 14.1282 6.60311 13.9167C6.9442 13.553 7.36352 13.3295 7.86106 13.2463C8.3586 13.1633 8.82864 13.2345 9.27118 13.4602L9.89921 13.7676C10.0029 13.8184 10.1017 13.8662 10.1955 13.911C10.2894 13.9557 10.3925 13.9949 10.5047 14.0284C10.6041 14.0586 10.6942 14.0488 10.7752 13.9992C10.8561 13.9495 10.9187 13.8821 10.9629 13.7969C11.0072 13.7061 11.0094 13.6168 10.9694 13.529C10.9294 13.441 10.8669 13.3748 10.7817 13.3305C10.148 13.0575 9.66019 12.6225 9.31811 12.0256C8.97604 11.4287 8.805 10.7812 8.805 10.083C8.805 9.37923 8.97955 8.72756 9.32864 8.12802C9.67773 7.52847 10.1535 7.05548 10.7558 6.70906L11.4973 6.29612C11.6721 6.19468 11.8553 6.11996 12.0468 6.07198C12.2385 6.02399 12.433 6 12.6304 6C12.9209 6 13.1929 6.05072 13.4464 6.15217C13.7001 6.25361 13.93 6.40304 14.1361 6.60046C14.4857 6.95025 14.6987 7.37174 14.7749 7.86493C14.8509 8.35812 14.7761 8.82599 14.5505 9.26853L14.2348 9.90476C14.1927 10.0085 14.1471 10.1059 14.098 10.1971C14.0489 10.2883 14.0103 10.39 13.9822 10.5023C13.9521 10.5876 13.9618 10.6706 14.0115 10.7515C14.0612 10.8324 14.1286 10.8951 14.2137 10.9394C14.2991 10.9696 14.3857 10.9682 14.4737 10.9354C14.5616 10.9024 14.6305 10.8433 14.6801 10.758C14.9812 10.1385 15.4267 9.65768 16.0166 9.31546C16.6065 8.97338 17.2435 8.80235 17.9276 8.80235C18.6314 8.80235 19.2853 8.96988 19.8892 9.30494C20.4929 9.64014 20.9637 10.1132 21.3016 10.7241L21.7145 11.4656C21.8105 11.6404 21.8817 11.8187 21.9281 12.0006C21.9746 12.1824 21.9978 12.3678 21.9978 12.5566C21.9978 12.8471 21.9458 13.1226 21.8416 13.3831C21.7374 13.6438 21.5866 13.88 21.3891 14.0916C21.0566 14.4552 20.6443 14.6738 20.1522 14.7472C19.66 14.8205 19.1927 14.7444 18.7501 14.5188L18.1059 14.2113C18.0077 14.1637 17.9116 14.1189 17.8175 14.0768C17.7237 14.0347 17.6206 13.9996 17.5084 13.9716C17.4231 13.9327 17.34 13.9381 17.2592 13.9878C17.1782 14.0375 17.1156 14.105 17.0712 14.1903C17.0411 14.2809 17.0438 14.3689 17.0794 14.4542C17.1151 14.5394 17.1755 14.6041 17.2607 14.6484C17.8943 14.9302 18.3822 15.3694 18.7242 15.9662C19.0663 16.563 19.2373 17.2133 19.2373 17.917ZM15.9137 20.616L16.6472 20.182C17.0616 19.9467 17.3865 19.6288 17.6218 19.2284C17.8571 18.8279 17.9748 18.3925 17.9748 17.922C17.9693 17.4655 17.8559 17.0445 17.6347 16.6592C17.4134 16.2738 17.1025 15.9775 16.7021 15.7702C16.3071 15.5641 16.0397 15.2487 15.9 14.824C15.7603 14.3993 15.7848 13.9824 15.9737 13.5734C16.1712 13.1471 16.5042 12.8781 16.9725 12.7665C17.4409 12.6546 17.9023 12.7089 18.3568 12.9292L19.3217 13.397C19.5171 13.4888 19.7235 13.5214 19.9409 13.4949C20.1584 13.4685 20.3438 13.3786 20.497 13.2253C20.6503 13.0721 20.7424 12.8924 20.7731 12.6863C20.8038 12.48 20.762 12.2836 20.6477 12.097L20.2219 11.3635C19.9779 10.9405 19.65 10.6078 19.2382 10.3655C18.8265 10.1232 18.3784 10.002 17.8937 10.002C17.4459 10.002 17.0309 10.1196 16.6488 10.3549C16.2666 10.5903 15.9746 10.9108 15.7729 11.3166C15.5808 11.7115 15.2737 11.9741 14.8517 12.1041C14.4296 12.2342 14.0141 12.2075 13.6051 12.0239C13.1929 11.8351 12.9169 11.5253 12.7771 11.0947C12.6372 10.6641 12.6704 10.24 12.8767 9.82226L13.4287 8.69711C13.529 8.51036 13.5625 8.30958 13.5291 8.09476C13.4956 7.88009 13.4022 7.69607 13.249 7.54271C13.0958 7.38949 12.9138 7.29612 12.7032 7.26258C12.4928 7.22919 12.2942 7.26539 12.1076 7.37118L11.3662 7.79695C10.957 8.03225 10.6348 8.35441 10.3995 8.76341C10.1642 9.17256 10.0465 9.61243 10.0465 10.083C10.0465 10.5309 10.1586 10.9475 10.3826 11.3328C10.6066 11.7181 10.916 12.0171 11.311 12.2298C11.6779 12.4359 11.9418 12.7294 12.1028 13.1104C12.2636 13.4913 12.2662 13.8766 12.1108 14.2662C11.9219 14.726 11.5946 15.035 11.129 15.1931C10.6633 15.3513 10.2032 15.3175 9.74873 15.0919L8.7206 14.5819C8.52529 14.4816 8.32107 14.4482 8.10794 14.4815C7.89481 14.5151 7.70728 14.6128 7.54536 14.7747C7.392 14.9279 7.29996 15.1076 7.26923 15.3137C7.2385 15.52 7.28032 15.7164 7.39467 15.903L7.82044 16.6365C8.05574 17.0455 8.37579 17.3655 8.78058 17.5964C9.18538 17.8275 9.62308 17.9431 10.0937 17.9431C10.3235 17.9431 10.5491 17.9136 10.7703 17.8547C10.9916 17.7959 11.2031 17.7077 11.4049 17.5901C11.5841 17.4864 11.7422 17.3569 11.8793 17.2016C12.0164 17.0461 12.1367 16.8788 12.2404 16.6996C12.4691 16.2906 12.798 16.0092 13.2271 15.8553C13.6562 15.7015 14.0654 15.739 14.4549 15.9679C14.8446 16.202 15.1098 16.5266 15.2507 16.9417C15.3916 17.3567 15.3632 17.7617 15.1657 18.1567L14.6056 19.2818C14.5192 19.4772 14.4892 19.6835 14.5158 19.901C14.5421 20.1185 14.632 20.3039 14.7854 20.4573C14.9386 20.6105 15.1183 20.7039 15.3244 20.7374C15.5306 20.7708 15.7271 20.7303 15.9137 20.616ZM16.6472 20.182L15.9137 20.616C15.7271 20.7216 15.5306 20.7599 15.3244 20.7309C15.1183 20.7017 14.9386 20.6105 14.7854 20.4573C14.632 20.3039 14.5386 20.1185 14.5052 19.901C14.4717 19.6835 14.5052 19.4772 14.6056 19.2818L15.1657 18.1567C15.3632 17.7617 15.3916 17.3567 15.2507 16.9417C15.1098 16.5266 14.8446 16.202 14.4549 15.9679C14.0654 15.7337 13.654 15.6948 13.2206 15.8513C12.7873 16.0078 12.4606 16.2906 12.2404 16.6996C12.1367 16.8788 12.0164 17.0461 11.8793 17.2016C11.7422 17.3569 11.5841 17.4864 11.4049 17.5901C11.2031 17.7024 10.9916 17.7892 10.7703 17.8507C10.5491 17.9123 10.3235 17.9431 10.0937 17.9431C9.62308 17.9431 9.18538 17.8275 8.78058 17.5964C8.37579 17.3655 8.05574 17.0455 7.82044 16.6365L7.39467 15.903C7.28902 15.7164 7.24938 15.52 7.27576 15.3137C7.30214 15.1076 7.392 14.9279 7.54536 14.7747C7.70728 14.6128 7.89481 14.5165 8.10794 14.4858C8.32107 14.4549 8.52529 14.4869 8.7206 14.5819L9.74873 15.0919C10.2032 15.3122 10.6633 15.3446 11.129 15.1891C11.5946 15.0337 11.9219 14.726 12.1108 14.2662C12.2662 13.8766 12.2636 13.4891 12.1028 13.1038C11.9418 12.7185 11.6779 12.4272 11.311 12.2298C10.916 12.0171 10.6066 11.7181 10.3826 11.3328C10.1586 10.9475 10.0465 10.5309 10.0465 10.083C10.0465 9.61243 10.1629 9.1734 10.3955 8.76594C10.6281 8.35847 10.9517 8.03548 11.3662 7.79695L12.1076 7.37118C12.2942 7.26539 12.4928 7.22919 12.7032 7.26258C12.9138 7.29612 13.0958 7.38949 13.249 7.54271C13.4022 7.69607 13.4942 7.88009 13.5249 8.09476C13.5558 8.30958 13.5237 8.51036 13.4287 8.69711L12.8767 9.82226C12.6704 10.24 12.6358 10.6655 12.7729 11.0987C12.91 11.5322 13.1874 11.8406 13.6051 12.0239C14.0141 12.2075 14.4283 12.2329 14.8477 12.1001C15.2669 11.9674 15.5753 11.7062 15.7729 11.3166C15.9661 10.9108 16.2559 10.5903 16.6423 10.3549C17.0287 10.1196 17.4459 10.002 17.8937 10.002C18.3784 10.002 18.8265 10.1232 19.2382 10.3655C19.65 10.6078 19.9779 10.9405 20.2219 11.3635L20.6477 12.097C20.7533 12.2836 20.793 12.48 20.7666 12.6863C20.7402 12.8924 20.6503 13.0721 20.497 13.2253C20.3438 13.3786 20.1584 13.4693 19.9409 13.4974C19.7235 13.5255 19.5171 13.492 19.3217 13.397L18.3568 12.9292C17.9023 12.7089 17.4409 12.6546 16.9725 12.7665C16.5042 12.8781 16.1712 13.1471 15.9737 13.5734C15.7848 13.9824 15.7603 14.3993 15.9 14.824C16.0397 15.2487 16.3071 15.5641 16.7021 15.7702C17.0972 15.9775 17.4067 16.2738 17.6307 16.6592C17.8546 17.0445 17.9693 17.4655 17.9748 17.922C17.9801 18.3925 17.8624 18.8266 17.6218 19.2244C17.381 19.6222 17.0562 19.9414 16.6472 20.182Z" fill="#FAFAFA"/>
</svg>
