<svg width="36" height="36" viewBox="0 0 36 36" fill="none" xmlns="http://www.w3.org/2000/svg">
<rect width="36" height="36" rx="18" fill="#B4AEAE"/>
<path opacity="0.9" d="M22.0502 10.3004C22.0502 10.7746 21.9477 11.1892 21.7427 11.5443C21.5378 11.8991 21.2585 12.1938 20.9048 12.4282C20.4909 12.7028 20.1902 13.0236 20.0029 13.3907C19.8153 13.7578 19.6565 14.2038 19.5264 14.7288C19.4341 15.0142 19.2476 15.2001 18.9669 15.2865C18.6864 15.3729 18.4316 15.3136 18.2024 15.1086L14.7668 11.7712C14.6609 11.6547 14.5913 11.5121 14.5578 11.3434C14.5242 11.1747 14.5409 11.0112 14.608 10.8531C14.9294 10.0293 15.5286 9.3478 16.4053 8.80868C17.2819 8.26956 18.3551 8 19.6249 8C20.3925 8 20.9886 8.23308 21.4134 8.69924C21.8379 9.1654 22.0502 9.69912 22.0502 10.3004ZM24.2061 14.0278C25.362 14.0278 26.2883 14.518 26.9848 15.4983C27.6813 16.4789 28.0296 17.6081 28.0296 18.8859C28.0296 19.6548 27.8012 20.3049 27.3445 20.836C26.8877 21.3671 26.3084 21.6293 25.6064 21.6225L25.1525 21.6126C25.0466 21.6126 24.9434 21.5888 24.8429 21.5413C24.7425 21.4937 24.6588 21.4364 24.5919 21.3694L19.6309 16.6176C19.465 16.434 19.4004 16.2064 19.4371 15.9345C19.474 15.6625 19.6197 15.477 19.8741 15.3779L22.6488 14.337C22.9074 14.2393 23.166 14.1633 23.4246 14.109C23.683 14.0548 23.9435 14.0278 24.2061 14.0278ZM16.8423 27.6502C16.0813 27.6502 15.4853 27.4215 15.0541 26.9641C14.6228 26.5066 14.4071 25.9719 14.4071 25.3598C14.4071 24.9472 14.4972 24.5527 14.6772 24.1763C14.8574 23.8 15.1264 23.4926 15.4841 23.2542C15.8738 23.0036 16.1929 22.6684 16.4414 22.2486C16.6899 21.8286 16.8676 21.3674 16.9747 20.865C16.8234 20.7993 16.6821 20.732 16.5508 20.6631C16.4195 20.5941 16.297 20.5114 16.1833 20.4149L13.7601 21.2871C13.4841 21.3848 13.2186 21.4652 12.9635 21.5282C12.7082 21.5911 12.4459 21.6225 12.1767 21.6225C11.0999 21.6225 10.1978 21.1922 9.4704 20.3316C8.74304 19.471 8.37936 18.282 8.37936 16.7644C8.37936 15.8695 8.62315 15.1897 9.11072 14.7249C9.5983 14.2601 10.183 14.0278 10.8647 14.0278C11.0979 14.0278 11.3494 14.0683 11.6193 14.1492C11.8892 14.2302 12.1139 14.3317 12.2935 14.4538L8.20853 10.3788C8.0532 10.2234 7.9738 10.0389 7.97031 9.82528C7.96701 9.61162 8.04641 9.42381 8.20853 9.26187C8.37065 9.09975 8.5568 9.01869 8.76698 9.01869C8.97734 9.01869 9.16357 9.09975 9.32569 9.26187L26.7137 26.6658C26.869 26.8211 26.9467 27.0046 26.9467 27.2164C26.9467 27.428 26.869 27.6114 26.7137 27.7667C26.5583 27.9222 26.3738 28 26.1602 28C25.9465 28 25.7619 27.9222 25.6064 27.7667L21.9337 24.0778C21.9471 24.1114 21.9538 24.1449 21.9538 24.1783V24.2789C21.8145 25.2259 21.3024 26.0245 20.4176 26.6749C19.5329 27.3251 18.3411 27.6502 16.8423 27.6502Z" fill="#FAFAFA"/>
</svg>
