<svg width="20" height="20" viewBox="0 0 20 20" fill="none" xmlns="http://www.w3.org/2000/svg">
<mask id="mask0_990_11292" style="mask-type:alpha" maskUnits="userSpaceOnUse" x="0" y="0" width="20" height="20">
<rect width="20" height="20" fill="#D9D9D9"/>
</mask>
<g mask="url(#mask0_990_11292)">
<path d="M6.6066 18.0471C5.54591 17.5895 4.61959 16.9647 3.82764 16.1728C3.0357 15.3808 2.41091 14.4545 1.95327 13.3938C1.49549 12.333 1.2666 11.2004 1.2666 9.99609C1.2666 8.79178 1.49514 7.66046 1.95223 6.60213C2.40945 5.5438 3.0341 4.61873 3.82618 3.82692C4.61841 3.03512 5.54507 2.41039 6.60618 1.95275C7.6673 1.49511 8.79869 1.2663 10.0004 1.2663C10.3072 1.2663 10.5679 1.37366 10.7824 1.58838C10.9972 1.8031 11.1045 2.0638 11.1045 2.37046C11.1045 2.67727 10.9972 2.93803 10.7824 3.15275C10.5679 3.36734 10.3072 3.47463 10.0004 3.47463C8.1923 3.47463 6.65271 4.11018 5.3816 5.3813C4.11049 6.65241 3.47493 8.19192 3.47493 9.99984C3.47493 11.8079 4.11049 13.3475 5.3816 14.6188C6.65271 15.8899 8.19223 16.5255 10.0001 16.5255C11.8082 16.5255 13.3479 15.8899 14.6191 14.6188C15.8902 13.3477 16.5258 11.8081 16.5258 10C16.5258 9.69324 16.6331 9.43255 16.8476 9.21796C17.0624 9.00324 17.3231 8.89588 17.6299 8.89588C17.9366 8.89588 18.1973 9.00324 18.412 9.21796C18.6267 9.43255 18.7341 9.69324 18.7341 10C18.7341 11.2017 18.5053 12.3331 18.0476 13.3942C17.59 14.4553 16.9653 15.382 16.1735 16.1742C15.3817 16.9663 14.4566 17.591 13.3983 18.0482C12.3399 18.5053 11.2086 18.7338 10.0043 18.7338C8.8 18.7338 7.66744 18.5049 6.6066 18.0471Z" fill="#B4AEAE"/>
</g>
</svg>
